<svg width="24" height="21" viewBox="0 0 24 21" fill="none" xmlns="http://www.w3.org/2000/svg">
<path fill-rule="evenodd" clip-rule="evenodd" d="M23.1 21H17.9946V13.6177C17.9946 11.6853 17.196 10.3662 15.4398 10.3662C14.0966 10.3662 13.3496 11.2564 13.0019 12.1143C12.8715 12.4222 12.8919 12.8512 12.8919 13.2801V21H7.83401C7.83401 21 7.8992 7.9229 7.83401 6.7342H12.8919V8.97311C13.1907 7.99417 14.8069 6.59704 17.3861 6.59704C20.586 6.59704 23.1 8.64904 23.1 13.0677V21ZM2.71908 4.9498H2.68649C1.05667 4.9498 0 3.85926 0 2.47692C0 1.06768 1.08791 0 2.75032 0C4.41138 0 5.43274 1.06499 5.46533 2.47288C5.46533 3.85522 4.41138 4.9498 2.71908 4.9498ZM0.582661 6.7342H5.08504V21H0.582661V6.7342Z" fill="white"/>
</svg>
