<svg width="26" height="21" viewBox="0 0 26 21" fill="none" xmlns="http://www.w3.org/2000/svg">
<path fill-rule="evenodd" clip-rule="evenodd" d="M25.2 2.48602C24.2741 2.90769 23.2771 3.19285 22.2314 3.32026C23.2993 2.66501 24.1188 1.626 24.5048 0.388299C23.5049 0.995016 22.4 1.4364 21.2197 1.67302C20.2789 0.64312 18.9344 0 17.4464 0C14.5931 0 12.2783 2.37378 12.2783 5.30119C12.2783 5.71679 12.3227 6.12026 12.4114 6.50856C8.11453 6.28711 4.30576 4.17876 1.75425 0.967714C1.30903 1.75341 1.05462 2.66501 1.05462 3.63575C1.05462 5.47411 1.96725 7.09707 3.35468 8.0481C2.50861 8.02232 1.70988 7.78115 1.01173 7.38678V7.452C1.01173 10.0215 2.79408 12.1647 5.1607 12.6501C4.72731 12.7744 4.27026 12.8366 3.79842 12.8366C3.46561 12.8366 3.1402 12.8048 2.82515 12.7426C3.48336 14.8479 5.39144 16.3814 7.65452 16.4223C5.88547 17.8451 3.65494 18.693 1.2336 18.693C0.816482 18.693 0.403803 18.6687 0 18.6202C2.28822 20.1218 5.00687 21 7.9252 21C17.436 21 22.6352 12.9231 22.6352 5.91701C22.6352 5.68646 22.6307 5.4559 22.6219 5.2299C23.6321 4.48212 24.5092 3.5493 25.2 2.48602Z" fill="white"/>
</svg>
