<svg width="28" height="28" viewBox="0 0 28 28" fill="none" xmlns="http://www.w3.org/2000/svg">
<path fill-rule="evenodd" clip-rule="evenodd" d="M6.9093 0H21.0907C24.9066 0 28 3.0934 28 6.9093V21.0907C28 24.9066 24.9066 28 21.0907 28H6.9093C3.0934 28 0 24.9066 0 21.0907V6.9093C0 3.0934 3.0934 0 6.9093 0Z" fill="#00127F"/>
<path d="M6.20422 8.78294C6.20422 7.71076 7.07865 6.84158 8.15732 6.84158H9.32018V7.61813H8.15732C7.51012 7.61813 6.98546 8.13963 6.98546 8.78294V19.1253C6.98546 19.7618 7.49913 20.2791 8.13692 20.2899L8.15732 20.2901H9.32018V21.0666H8.15732C7.08944 21.0666 6.22173 20.2147 6.20449 19.1574L6.20422 19.1253V8.78294ZM21.0047 19.1253V8.78294C21.0047 8.13963 20.4813 7.61813 19.8357 7.61813H18.7358V6.84158H19.8357C20.9117 6.84158 21.784 7.71076 21.784 8.78294L21.7839 13.3697L21.784 19.1253C21.784 20.1867 20.9291 21.0492 19.8679 21.0664L19.8357 21.0666H18.7358V20.2901H19.8357C20.4813 20.2901 21.0047 19.7686 21.0047 19.1253ZM17.7434 12.7958C17.9246 12.9109 17.9774 13.1499 17.8614 13.3296L17.7066 13.5694C17.623 13.6989 17.528 13.8209 17.4228 13.9339C16.4439 14.9854 14.7978 15.0603 13.7261 14.1099L13.6938 14.0808C13.6012 13.996 13.4998 13.9212 13.3912 13.8576C12.5455 13.3624 11.4552 13.6411 10.956 14.48L10.858 14.6447C10.7487 14.8284 10.5099 14.8895 10.3246 14.781C10.1394 14.6725 10.0778 14.4356 10.1872 14.2519L10.2851 14.0872C11.003 12.8807 12.5709 12.48 13.7872 13.1921C13.9303 13.2759 14.0648 13.3733 14.1888 13.483L14.2223 13.5132C14.9769 14.2045 16.1536 14.1582 16.8506 13.4096C16.9247 13.33 16.9917 13.244 17.0506 13.1527L17.2054 12.9129C17.3214 12.7332 17.5623 12.6808 17.7434 12.7958Z" fill="#00E567"/>
<path fill-rule="evenodd" clip-rule="evenodd" d="M5.52686 8.78293C5.52686 7.33279 6.70842 6.16418 8.15734 6.16418H9.3202C9.69431 6.16418 9.99758 6.46746 9.99758 6.84157V7.61811C9.99758 7.99222 9.69431 8.29549 9.3202 8.29549H8.15734C7.88039 8.29549 7.66286 8.51757 7.66286 8.78293V19.1252C7.66286 19.387 7.87463 19.6067 8.14614 19.6126L8.16021 19.6127H9.3202C9.69431 19.6127 9.99758 19.916 9.99758 20.2901V21.0666C9.99758 21.4407 9.69431 21.744 9.3202 21.744H8.15734C6.72281 21.744 5.55054 20.5987 5.52721 19.1684C5.52719 19.1673 5.52717 19.1663 5.52716 19.1652L5.52714 19.1629L5.52688 19.1308C5.52686 19.1289 5.52686 19.1271 5.52686 19.1252V8.78293ZM18.0584 6.84157C18.0584 6.46746 18.3617 6.16418 18.7358 6.16418H19.8357C21.2835 6.16418 22.4614 7.33434 22.4614 8.78294V19.1252C22.4614 20.5594 21.307 21.7206 19.8789 21.7436C19.877 21.7437 19.8752 21.7437 19.8734 21.7437L19.8412 21.744C19.8393 21.744 19.8375 21.744 19.8357 21.744H18.7358C18.3617 21.744 18.0584 21.4407 18.0584 21.0666V20.2901C18.0584 19.916 18.3617 19.6127 18.7358 19.6127H19.8357C20.1095 19.6127 20.3273 19.3922 20.3273 19.1252V8.78293C20.3273 8.51602 20.1095 8.29549 19.8357 8.29549H18.7358C18.3617 8.29549 18.0584 7.99222 18.0584 7.61811V6.84157ZM16.6363 12.5455C16.9553 12.0513 17.6131 11.9106 18.1066 12.224C18.6034 12.5396 18.7517 13.1995 18.4306 13.6969L18.2758 13.9367C18.1705 14.0998 18.051 14.2533 17.9186 14.3955C16.6884 15.7168 14.6226 15.8104 13.2767 14.6167C13.2753 14.6155 13.2739 14.6143 13.2726 14.6131L13.2403 14.5839C13.2393 14.5831 13.2384 14.5822 13.2374 14.5814C13.237 14.581 13.2366 14.5806 13.2362 14.5803C13.179 14.5278 13.1162 14.4815 13.0489 14.4421C12.5223 14.1338 11.8457 14.3094 11.5381 14.8264L11.4402 14.991C11.1392 15.4968 10.4867 15.6609 9.98236 15.3655C9.47483 15.0684 9.30219 14.4145 9.60507 13.9055L9.70304 13.7408C10.6125 12.2123 12.5941 11.7086 14.1294 12.6076C14.3104 12.7135 14.4805 12.8367 14.6375 12.9755C14.6381 12.9761 14.6388 12.9766 14.6394 12.9772C14.6403 12.978 14.6411 12.9787 14.642 12.9795L14.6755 13.0097C14.677 13.011 14.6785 13.0124 14.6799 13.0137C15.1606 13.454 15.9116 13.424 16.3548 12.948C16.4018 12.8975 16.4442 12.8431 16.4815 12.7853L16.6363 12.5455Z" fill="#00E567"/>
</svg>
