<svg width="24" height="21" viewBox="0 0 24 21" fill="none" xmlns="http://www.w3.org/2000/svg">
<path d="M2.73989 0.0291176H14.4602L14.4563 6.43185L14.4602 13.6945L14.4503 20.1679L2.74497 20.1974C1.63076 20.2002 0.725227 19.2992 0.722419 18.185C0.722414 18.1833 0.722412 18.1816 0.722412 18.1799V2.04659C0.722412 0.932373 1.62567 0.0291176 2.73989 0.0291176Z" fill="#376FFF"/>
<path d="M21.705 20.1676H13.8479L13.8511 13.5222C13.8514 13.027 13.4501 12.6253 12.9549 12.6251C12.8113 12.625 12.6697 12.6595 12.5421 12.7255L11.3626 13.3364C9.93222 14.0771 8.17551 13.6669 7.22116 12.3692L7.21291 12.358C6.23261 11.025 6.23595 9.2087 7.22116 7.87938C8.17629 6.59064 9.92564 6.18581 11.3498 6.92392L12.5405 7.541C12.9801 7.76887 13.5213 7.59717 13.7491 7.1575C13.8151 7.03033 13.8495 6.88923 13.8497 6.74599L13.8578 0.0274487L21.6979 -5.72205e-05C22.8122 -0.00396538 23.7186 0.896114 23.7225 2.01033C23.7225 2.01269 23.7225 2.01505 23.7225 2.01741L23.7225 18.1501C23.7225 19.2643 22.8192 20.1676 21.705 20.1676Z" fill="#00E567"/>
</svg>
