<?xml version="1.0" encoding="UTF-8"?>
<svg width="121px" height="121px" viewBox="0 0 121 121" version="1.1" xmlns="http://www.w3.org/2000/svg" xmlns:xlink="http://www.w3.org/1999/xlink">
    <!-- Generator: Sketch 64 (93537) - https://sketch.com -->
    <title>storj-icon-color-node</title>
    <desc>Created with Sketch.</desc>
    <g id="Color" stroke="none" stroke-width="1" fill="none" fill-rule="evenodd">
        <g id="storj-icon-color-node">
            <path d="M49.7380624,0 L70.622671,0 C87.3725958,0 94.0183956,1.85651222 100.536914,5.34265408 C107.055433,8.82879593 112.171204,13.9445674 115.657346,20.4630859 L115.922293,20.9649297 C119.193852,27.2453192 120.953349,33.8799042 121,49.7380624 L121,70.622671 C121,87.3725958 119.143488,94.0183956 115.657346,100.536914 C112.171204,107.055433 107.055433,112.171204 100.536914,115.657346 L100.03507,115.922293 C93.7546808,119.193852 87.1200958,120.953349 71.2619376,121 L50.377329,121 C33.6274042,121 26.9816044,119.143488 20.4630859,115.657346 C13.9445674,112.171204 8.82879593,107.055433 5.34265408,100.536914 L5.0777074,100.03507 C1.80614785,93.7546808 0.0466511021,87.1200958 0,71.2619376 L0,50.377329 C0,33.6274042 1.85651222,26.9816044 5.34265408,20.4630859 C8.82879593,13.9445674 13.9445674,8.82879593 20.4630859,5.34265408 L20.9649297,5.0777074 C27.2453192,1.80614785 33.8799042,0.0466511021 49.7380624,0 Z" id="Rectangle" fill="#0218A7"></path>
            <g id="Group-57" transform="translate(11.000000, 35.000000)">
                <path d="M98.418008,16.6666667 L98.418008,37.7037223 C98.418008,44.4100372 92.9814657,49.8465795 86.2751509,49.8465795 L12.1428571,49.8465795 C5.43654232,49.8465795 0,44.4100372 0,37.7037223 L0,16.6666667 L98.418008,16.6666667 Z" id="Path" fill="#0149FF"></path>
                <path d="M25.3651515,0 L72.9681819,0 C78.5377281,2.52399238e-14 83.8791603,2.21249365 87.8174243,6.1507576 L98.3333333,16.6666667 L98.3333333,16.6666667 L0,16.6666667 L10.5159091,6.1507576 C14.454173,2.21249365 19.7956052,-6.0823183e-15 25.3651515,0 Z" id="Rectangle" fill="#C8D3DE"></path>
                <circle id="Oval" fill="#FFC600" cx="17.0238095" cy="33.2142857" r="3.92857143"></circle>
                <circle id="Oval-Copy-55" fill="#FF458B" cx="27.7380952" cy="33.2142857" r="3.92857143"></circle>
                <circle id="Oval-Copy-56" fill="#00E567" cx="38.452381" cy="33.2142857" r="3.92857143"></circle>
                <circle id="Oval-Copy-57" fill="#FFFFFF" cx="76.547619" cy="33.2142857" r="3.92857143"></circle>
            </g>
        </g>
    </g>
</svg>