<svg width="35" height="27" viewBox="0 0 35 27" fill="none" xmlns="http://www.w3.org/2000/svg">
<path fill-rule="evenodd" clip-rule="evenodd" d="M20.1445 0C21.7172 0 22.9922 1.27494 22.9922 2.84766V9.59766H14.3438C12.7868 9.59766 11.5216 10.8472 11.4965 12.3982L11.4961 12.4453L11.496 14.8711H3.49703L0 17.4023L0 2.84766C0 1.27494 1.27494 0 2.84766 0H20.1445Z" fill="#002891"/>
<path fill-rule="evenodd" clip-rule="evenodd" d="M34.4883 27L30.9913 24.4688H14.3438C12.771 24.4688 11.4961 23.1938 11.4961 21.6211V12.4453C11.4961 10.8726 12.771 9.59766 14.3438 9.59766H31.6406C33.2133 9.59766 34.4883 10.8726 34.4883 12.4453V27Z" fill="#376FFF"/>
</svg>
