<svg width="33" height="28" viewBox="0 0 33 28" fill="none" xmlns="http://www.w3.org/2000/svg">
<g clip-path="url(#clip0)">
<path fill-rule="evenodd" clip-rule="evenodd" d="M3.1136 22H29.8869C31.6062 22 33 20.6009 33 18.875C33 18.3223 32.854 17.7795 32.5768 17.302L29.2399 11.552C28.6822 10.591 27.6578 10 26.55 10H6.45056C5.34269 10 4.3183 10.591 3.76063 11.552L0.423674 17.302C-0.441782 18.7932 0.0609471 20.7064 1.54655 21.5752C2.02229 21.8534 2.56302 22 3.1136 22Z" fill="#CCD4DF"/>
<path d="M29.9444 16H3.05556C1.36802 16 0 17.3834 0 19.0899V23.9101C0 25.6166 1.36802 27 3.05556 27H29.9444C31.632 27 33 25.6166 33 23.9101V19.0899C33 17.3834 31.632 16 29.9444 16Z" fill="#376FFF"/>
<path d="M6.21731 23.4342C7.20782 23.4342 8.01079 22.6095 8.01079 21.5921C8.01079 20.5747 7.20782 19.75 6.21731 19.75C5.2268 19.75 4.42383 20.5747 4.42383 21.5921C4.42383 22.6095 5.2268 23.4342 6.21731 23.4342Z" fill="#FFC700"/>
<path d="M11.9565 22.6973C12.5508 22.6973 13.0325 22.2025 13.0325 21.5921C13.0325 20.9817 12.5508 20.4868 11.9565 20.4868C11.3622 20.4868 10.8804 20.9817 10.8804 21.5921C10.8804 22.2025 11.3622 22.6973 11.9565 22.6973Z" fill="white"/>
<path d="M23.8996 20.1798H27.5131C28.266 20.1798 28.8748 20.813 28.8748 21.5921C28.8748 22.3712 28.266 23.0044 27.5131 23.0044H23.8996C23.1467 23.0044 22.5378 22.3712 22.5378 21.5921C22.5378 20.813 23.1467 20.1798 23.8996 20.1798Z" fill="#00E075"/>
</g>
<defs>
<clipPath id="clip0">
<rect width="33" height="28" fill="white"/>
</clipPath>
</defs>
</svg>
