<svg width="26" height="21" viewBox="0 0 26 21" fill="none" xmlns="http://www.w3.org/2000/svg">
<path fill-rule="evenodd" clip-rule="evenodd" d="M16.3485 13.821C15.4066 13.821 14.6152 13.0641 14.6152 12.1309C14.6152 11.1976 15.4066 10.4157 16.3485 10.4157C17.2903 10.4157 18.0542 11.1976 18.0542 12.1309C18.0542 13.0641 17.2903 13.821 16.3485 13.821ZM16.7485 17.1015C15.8713 17.97 14.5183 18.3922 12.6126 18.3922C12.6087 18.3922 12.6039 18.3914 12.5992 18.3914C12.5953 18.3914 12.5905 18.3922 12.5858 18.3922C10.6801 18.3922 9.32794 17.97 8.45145 17.1015C8.18213 16.8346 8.18213 16.4031 8.45145 16.137C8.71999 15.8709 9.15547 15.8709 9.4248 16.137C10.0296 16.7363 11.0636 17.0282 12.5858 17.0282C12.5905 17.0282 12.5953 17.0289 12.5992 17.0289C12.6039 17.0289 12.6087 17.0282 12.6126 17.0282C14.1348 17.0282 15.1696 16.7363 15.7752 16.137C16.0445 15.8702 16.48 15.8709 16.7485 16.137C17.0171 16.4039 17.0171 16.8354 16.7485 17.1015ZM7.14577 12.1309C7.14577 11.1984 7.93564 10.4157 8.8767 10.4157C9.81855 10.4157 10.5824 11.1984 10.5824 12.1309C10.5824 13.0641 9.81855 13.821 8.8767 13.821C7.93564 13.821 7.14577 13.0641 7.14577 12.1309ZM20.9979 1.364C21.6358 1.364 22.1547 1.87823 22.1547 2.50951C22.1547 3.14157 21.6358 3.6558 20.9979 3.6558C20.36 3.6558 19.8411 3.14157 19.8411 2.50951C19.8411 1.87823 20.36 1.364 20.9979 1.364ZM25.2 10.2745C25.2 8.61943 23.8416 7.27337 22.1713 7.27337C21.4483 7.27337 20.7845 7.5262 20.2632 7.94679C18.4165 6.7966 16.0729 6.10367 13.5607 5.95697L14.8712 1.8517L18.4724 2.69211C18.5669 3.99134 19.6631 5.0198 20.9979 5.0198C22.3941 5.0198 23.5305 3.8938 23.5305 2.50951C23.5305 1.126 22.3941 0 20.9979 0C20.0214 0 19.1725 0.550907 18.7496 1.35542L14.5648 0.379236C14.2144 0.297302 13.86 0.497064 13.7513 0.837284L12.1243 5.93278C9.41771 5.99833 6.8733 6.69359 4.89116 7.91089C4.37692 7.51215 3.73039 7.27337 3.02872 7.27337C1.35844 7.27337 0 8.61943 0 10.2745C0 11.2975 0.51975 12.2019 1.31119 12.7434C1.27811 12.9814 1.26079 13.221 1.26079 13.4637C1.26079 15.5323 2.47433 17.4566 4.67775 18.8814C6.78982 20.2478 9.58545 21 12.5488 21C15.5122 21 18.3078 20.2478 20.4199 18.8814C22.6233 17.4566 23.8368 15.5323 23.8368 13.4637C23.8368 13.2428 23.8219 13.0236 23.7943 12.8058C24.6385 12.2729 25.2 11.3373 25.2 10.2745Z" fill="white"/>
</svg>
