<svg width="22" height="21" viewBox="0 0 22 21" fill="none" xmlns="http://www.w3.org/2000/svg">
<path fill-rule="evenodd" clip-rule="evenodd" d="M10.7227 0C4.8014 0 0 4.81976 0 10.7666C0 15.5224 3.07225 19.5576 7.33414 20.9814C7.87031 21.0803 8.06601 20.7479 8.06601 20.4626C8.06601 20.2069 8.05663 19.53 8.05127 18.6318C5.06815 19.2824 4.43882 17.1885 4.43882 17.1885C3.95157 15.945 3.24852 15.6139 3.24852 15.6139C2.2747 14.9458 3.32224 14.9592 3.32224 14.9592C4.39794 15.0353 4.96427 16.0688 4.96427 16.0688C5.92133 17.714 7.47421 17.2389 8.08545 16.963C8.18263 16.2673 8.4601 15.7929 8.76638 15.5238C6.38512 15.2519 3.88187 14.3288 3.88187 10.2034C3.88187 9.02789 4.29941 8.06703 4.98571 7.31409C4.87513 7.04158 4.50718 5.94749 5.09027 4.46516C5.09027 4.46516 5.99103 4.17583 8.0392 5.56867C8.89506 5.3298 9.81191 5.2107 10.7241 5.20599C11.6349 5.2107 12.5524 5.3298 13.4089 5.56867C15.4558 4.17583 16.3545 4.46516 16.3545 4.46516C16.9396 5.94749 16.5717 7.04158 16.4611 7.31409C17.1487 8.06703 17.5636 9.02789 17.5636 10.2034C17.5636 14.3388 15.0563 15.2492 12.6677 15.5157C13.0524 15.8481 13.3955 16.5048 13.3955 17.5094C13.3955 18.9487 13.3821 20.1094 13.3821 20.4626C13.3821 20.7506 13.5752 21.0857 14.1194 20.9801C18.3772 19.5536 21.4468 15.5211 21.4468 10.7666C21.4468 4.81976 16.6454 0 10.7227 0Z" fill="white"/>
</svg>
