<svg width="28" height="21" viewBox="0 0 28 21" fill="none" xmlns="http://www.w3.org/2000/svg">
<rect width="27.6923" height="21" rx="4" fill="white"/>
<rect width="27.6923" height="21" rx="4" fill="#0038AB"/>
<path d="M14 0H24C26.2091 0 28 1.79086 28 4V17C28 19.2091 26.2091 21 24 21H14V0Z" fill="white"/>
<path d="M14 0H24C26.2091 0 28 1.79086 28 4V17C28 19.2091 26.2091 21 24 21H14V0Z" fill="#376FFF"/>
<rect x="16.3843" y="11.6334" width="8.82353" height="1.35747" rx="0.678733" fill="white"/>
<rect x="16.3843" y="11.6334" width="8.82353" height="1.35747" rx="0.678733" fill="white"/>
<rect x="16.3843" y="8.23935" width="7.46606" height="1.35747" rx="0.678733" fill="white"/>
<rect x="16.3843" y="8.23935" width="7.46606" height="1.35747" rx="0.678733" fill="white"/>
<rect x="16.3843" y="4.8457" width="4.0724" height="1.35747" rx="0.678733" fill="white"/>
<rect x="16.3843" y="4.8457" width="4.0724" height="1.35747" rx="0.678733" fill="white"/>
<rect x="16.3843" y="15.0269" width="7.46606" height="1.35747" rx="0.678733" fill="white"/>
<rect x="16.3843" y="15.0269" width="7.46606" height="1.35747" rx="0.678733" fill="white"/>
<rect x="2.84579" y="11.6334" width="8.82353" height="1.35747" rx="0.678733" fill="white"/>
<rect x="2.84579" y="11.6334" width="8.82353" height="1.35747" rx="0.678733" fill="white"/>
<rect x="2.84579" y="8.23935" width="7.46606" height="1.35747" rx="0.678733" fill="white"/>
<rect x="2.84579" y="8.23935" width="7.46606" height="1.35747" rx="0.678733" fill="white"/>
<rect x="2.8457" y="4.8457" width="4.0724" height="1.35747" rx="0.678733" fill="white"/>
<rect x="2.8457" y="4.8457" width="4.0724" height="1.35747" rx="0.678733" fill="white"/>
<rect x="2.84579" y="15.0269" width="7.46606" height="1.35747" rx="0.678733" fill="white"/>
<rect x="2.84579" y="15.0269" width="7.46606" height="1.35747" rx="0.678733" fill="white"/>
</svg>
