<?xml version="1.0" encoding="UTF-8"?>
<svg width="121px" height="121px" viewBox="0 0 121 121" version="1.1" xmlns="http://www.w3.org/2000/svg" xmlns:xlink="http://www.w3.org/1999/xlink">
    <!-- Generator: Sketch 64 (93537) - https://sketch.com -->
    <title>storj-icon-color-puzzle</title>
    <desc>Created with Sketch.</desc>
    <g id="Color" stroke="none" stroke-width="1" fill="none" fill-rule="evenodd">
        <g id="storj-icon-color-puzzle">
            <g id="Group-27-Copy-3" fill="#0218A7">
                <g id="Group-20-Copy-2">
                    <g id="Group-19-Copy-4">
                        <g id="Group-13-Copy-16">
                            <path d="M49.7380624,0 L70.622671,0 C87.3725958,0 94.0183956,1.85651222 100.536914,5.34265408 C107.055433,8.82879593 112.171204,13.9445674 115.657346,20.4630859 L115.922293,20.9649297 C119.193852,27.2453192 120.953349,33.8799042 121,49.7380624 L121,70.622671 C121,87.3725958 119.143488,94.0183956 115.657346,100.536914 C112.171204,107.055433 107.055433,112.171204 100.536914,115.657346 L100.03507,115.922293 C93.7546808,119.193852 87.1200958,120.953349 71.2619376,121 L50.377329,121 C33.6274042,121 26.9816044,119.143488 20.4630859,115.657346 C13.9445674,112.171204 8.82879593,107.055433 5.34265408,100.536914 L5.0777074,100.03507 C1.80614785,93.7546808 0.0466511021,87.1200958 0,71.2619376 L0,50.377329 C0,33.6274042 1.85651222,26.9816044 5.34265408,20.4630859 C8.82879593,13.9445674 13.9445674,8.82879593 20.4630859,5.34265408 L20.9649297,5.0777074 C27.2453192,1.80614785 33.8799042,0.0466511021 49.7380624,0 Z" id="Rectangle"></path>
                        </g>
                    </g>
                </g>
            </g>
            <g id="605a4ea89041a32385636b19_icon-puzzle" transform="translate(23.000000, 27.000000)" fill-rule="nonzero">
                <path d="M47.5989307,0 L47.5989307,3.98260264 L62.0126724,17.1479543 C59.8949135,17.1479543 58.6398451,17.6816312 58.5188865,19.7722391 L62.0126724,33.768343 L69,48.6393481 C69.0054072,50.7603653 54.6843513,44.1496071 56.7721164,44.265581 L62.8859345,53.8879671 L47.5632824,61.925869 L47.5733623,65.9083781 L7.97296657,66 C3.68053423,66.0105632 0.173784075,62.6135868 0.00623922661,58.348653 L0,58.0497309 L0,7.96518559 C0,3.66612441 3.40065766,0.162525964 7.65481102,0.00549337069 L7.95295431,0 L47.5989307,0 Z" id="Path" fill="#0149FF"></path>
                <path d="M40.1839398,44.8721786 L40.1737297,66 L66.6942227,66 C71.8335497,66 76,61.7958002 76,56.6099115 L76,9.37041344 C75.9820108,4.17125144 71.8009746,-0.0180781029 66.6614045,0 L40.2087357,0.093759137 L40.1839398,21.4194952 L38.4312058,20.5019485 C32.7157374,17.5129064 25.6950778,19.1523219 21.8620116,24.3711373 C18.1387283,29.4404015 18.0471534,36.327379 21.5937048,41.4871121 L21.8538678,41.8535343 L22.0739684,42.1471121 C25.9476563,47.1672674 32.8372862,48.7102007 38.4669412,45.7683119 L40.1839398,44.8721786 Z" id="Path" fill="#00E366"></path>
            </g>
        </g>
    </g>
</svg>