<?xml version="1.0" encoding="UTF-8"?>
<svg width="121px" height="121px" viewBox="0 0 121 121" version="1.1" xmlns="http://www.w3.org/2000/svg" xmlns:xlink="http://www.w3.org/1999/xlink">
    <!-- Generator: Sketch 64 (93537) - https://sketch.com -->
    <title>storj-icon-color-people</title>
    <desc>Created with Sketch.</desc>
    <g id="Color" stroke="none" stroke-width="1" fill="none" fill-rule="evenodd">
        <g id="storj-icon-color-people">
            <path d="M49.7380624,0 L70.622671,0 C87.3725958,0 94.0183956,1.85651222 100.536914,5.34265408 C107.055433,8.82879593 112.171204,13.9445674 115.657346,20.4630859 L115.922293,20.9649297 C119.193852,27.2453192 120.953349,33.8799042 121,49.7380624 L121,70.622671 C121,87.3725958 119.143488,94.0183956 115.657346,100.536914 C112.171204,107.055433 107.055433,112.171204 100.536914,115.657346 L100.03507,115.922293 C93.7546808,119.193852 87.1200958,120.953349 71.2619376,121 L50.377329,121 C33.6274042,121 26.9816044,119.143488 20.4630859,115.657346 C13.9445674,112.171204 8.82879593,107.055433 5.34265408,100.536914 L5.0777074,100.03507 C1.80614785,93.7546808 0.0466511021,87.1200958 0,71.2619376 L0,50.377329 C0,33.6274042 1.85651222,26.9816044 5.34265408,20.4630859 C8.82879593,13.9445674 13.9445674,8.82879593 20.4630859,5.34265408 L20.9649297,5.0777074 C27.2453192,1.80614785 33.8799042,0.0466511021 49.7380624,0 Z" id="Rectangle" fill="#0218A7"></path>
            <path d="M45.4183275,92.6878613 C63.9703938,92.6878613 79.8628804,104.027294 86.4878585,120.125843 C82.5639275,120.679484 77.7462619,120.974494 71.4789305,120.999253 L50.377329,121 C33.6274042,121 26.9816044,119.143488 20.4630859,115.657346 C16.9758126,113.792332 13.8900098,111.460913 11.2404159,108.697827 C19.3781559,98.9173387 31.6677029,92.6878613 45.4183275,92.6878613 Z" id="Combined-Shape" fill="#FFC600"></path>
            <g id="Group-60" transform="translate(23.000000, 42.000000)">
                <g id="Group-59-Copy" fill="#FF458B">
                    <ellipse id="Oval-Copy-58" cx="22.5" cy="21.4624277" rx="21.5524862" ry="21.4624277"></ellipse>
                </g>
                <g id="Group-59" transform="translate(30.000000, 0.000000)" fill="#FFC600">
                    <ellipse id="Oval-Copy-58" cx="22.5" cy="21.4624277" rx="21.5524862" ry="21.4624277"></ellipse>
                </g>
            </g>
            <path d="M75.4183275,92.6878613 C89.2116393,92.6878613 101.534788,98.9560761 109.671996,108.788076 C107.04244,111.511857 103.986045,113.81273 100.536914,115.657346 L100.03507,115.922293 C93.7833139,119.178937 87.1805844,120.937274 71.478262,120.999255 L50.377329,121 C43.6058147,121 38.4856712,120.69658 34.3577063,120.104732 C40.9882438,104.016973 56.8747062,92.6878613 75.4183275,92.6878613 Z" id="Combined-Shape" fill="#FF458B"></path>
        </g>
    </g>
</svg>